<svg width="16" height="16" viewBox="0 0 16 16" fill="none" xmlns="http://www.w3.org/2000/svg">
<path d="M4.00017 9.9998C3.81128 9.9998 3.65283 9.9358 3.52483 9.8078C3.39683 9.6798 3.33305 9.52157 3.3335 9.33313V6.66646C3.3335 6.47757 3.3975 6.31913 3.5255 6.19113C3.6535 6.06313 3.81172 5.99935 4.00017 5.9998H6.00017L8.20017 3.7998C8.41128 3.58869 8.65305 3.54135 8.9255 3.6578C9.19794 3.77424 9.33394 3.98269 9.3335 4.28313V11.7165C9.3335 12.0165 9.19728 12.2249 8.92483 12.3418C8.65239 12.4587 8.41083 12.4114 8.20017 12.1998L6.00017 9.9998H4.00017ZM10.6668 10.6665V5.2998C11.1668 5.53313 11.5697 5.89424 11.8755 6.38313C12.1813 6.87202 12.3339 7.41091 12.3335 7.9998C12.3335 8.58869 12.1806 9.12202 11.8748 9.5998C11.5691 10.0776 11.1664 10.4331 10.6668 10.6665Z" fill="white"/>
</svg>
