<svg width="16" height="16" viewBox="0 0 16 16" fill="none" xmlns="http://www.w3.org/2000/svg">
<path d="M10.2333 13.5331C10.0111 13.622 9.80556 13.5942 9.61667 13.4498C9.42778 13.3053 9.33334 13.1053 9.33334 12.8498C9.33334 12.7276 9.36956 12.6193 9.442 12.5251C9.51445 12.4309 9.606 12.3613 9.71667 12.3165C10.6056 11.9609 11.3196 11.3942 11.8587 10.6165C12.3978 9.83867 12.6671 8.9609 12.6667 7.98312C12.6667 7.00534 12.3971 6.12756 11.858 5.34978C11.3189 4.57201 10.6051 4.00534 9.71667 3.64978C9.59445 3.60534 9.5 3.53312 9.43334 3.43312C9.36667 3.33312 9.33334 3.22201 9.33334 3.09978C9.33334 2.85534 9.42778 2.6609 9.61667 2.51645C9.80556 2.37201 10.0111 2.34423 10.2333 2.43312C11.3667 2.88867 12.2778 3.61645 12.9667 4.61645C13.6556 5.61645 14 6.73867 14 7.98312C14 9.22756 13.6556 10.3498 12.9667 11.3498C12.2778 12.3498 11.3667 13.0776 10.2333 13.5331ZM2.66667 9.99978C2.47778 9.99978 2.31934 9.93578 2.19134 9.80778C2.06334 9.67978 1.99956 9.52156 2 9.33312V6.66645C2 6.47756 2.064 6.31912 2.192 6.19112C2.32 6.06312 2.47822 5.99934 2.66667 5.99978H4.66667L6.86667 3.79978C7.07778 3.58867 7.31956 3.54134 7.592 3.65778C7.86445 3.77423 8.00045 3.98267 8 4.28312V11.7165C8 12.0165 7.86378 12.2249 7.59134 12.3418C7.31889 12.4587 7.07734 12.4113 6.86667 12.1998L4.66667 9.99978H2.66667ZM9.33334 10.6665V5.29978C9.83334 5.53312 10.2362 5.89423 10.542 6.38312C10.8478 6.87201 11.0004 7.4109 11 7.99978C11 8.58867 10.8471 9.12201 10.5413 9.59978C10.2356 10.0776 9.83289 10.4331 9.33334 10.6665Z" fill="white"/>
</svg>
