<svg width="16" height="16" viewBox="0 0 16 16" fill="none" xmlns="http://www.w3.org/2000/svg">
<path d="M5.33317 9.9998C5.14428 9.9998 4.98584 9.9358 4.85784 9.8078C4.72984 9.6798 4.66606 9.52157 4.66651 9.33313V6.66646C4.66651 6.47757 4.73051 6.31913 4.85851 6.19113C4.98651 6.06313 5.14473 5.99935 5.33317 5.9998H7.33317L9.53317 3.7998C9.74428 3.58869 9.98606 3.54135 10.2585 3.6578C10.531 3.77424 10.667 3.98269 10.6665 4.28313V11.7165C10.6665 12.0165 10.5303 12.2249 10.2578 12.3418C9.9854 12.4587 9.74384 12.4114 9.53317 12.1998L7.33317 9.9998H5.33317Z" fill="white"/>
</svg>
